<svg width="22" height="22" viewBox="0 0 22 22" fill="none" xmlns="http://www.w3.org/2000/svg">
<g clip-path="url(#clip0_4301_60)">
<path d="M4.48669 17.5133L0.722982 13.7496C0.276577 13.2918 0 12.6449 0 12.0125C0 11.7197 0.164976 11.262 0.289516 11L3.76371 3.76367L4.48669 17.5133Z" fill="#01579B"/>
<path d="M17.3694 4.48669L13.6057 0.722982C13.2774 0.39303 12.5932 0 12.0142 0C11.516 0 11.0275 0.100279 10.7122 0.289516L3.76538 3.76371L17.3694 4.48669Z" fill="#40C4FF"/>
<path d="M8.97346 22H18.0924V18.0923L11.2896 15.9202L5.0658 18.0923L8.97346 22Z" fill="#40C4FF"/>
<path d="M3.76367 15.4867C3.76367 16.648 3.90924 16.9326 4.48665 17.5133L5.06569 18.0923H18.0923L11.7246 10.856L3.76367 3.76367V15.4867Z" fill="#29B6F6"/>
<path d="M15.3427 3.76221H3.76367L18.0923 18.0908H22V9.11745L17.3677 4.48519C16.7175 3.83337 16.1401 3.76221 15.3427 3.76221Z" fill="#01579B"/>
<path opacity="0.2" d="M4.6322 17.6572C4.05317 17.0766 3.90922 16.504 3.90922 15.4867V3.90762L3.76527 3.76367V15.4867C3.76365 16.504 3.76365 16.7854 4.6322 17.6572L5.06566 18.0907L4.6322 17.6572Z" fill="white"/>
<path opacity="0.2" d="M21.856 8.97339V17.9468H17.9484L18.0923 18.0923H22V9.11734L21.856 8.97339Z" fill="#263238"/>
<path opacity="0.2" d="M17.3694 4.48665C16.6513 3.76852 16.0642 3.76367 15.1988 3.76367H3.76538L3.90933 3.90762H15.1988C15.6307 3.90762 16.7208 3.83484 17.3694 4.48665Z" fill="white"/>
<path opacity="0.2" d="M21.856 8.97339L17.3693 4.48669L13.6056 0.722982C13.2773 0.39303 12.5931 0 12.0141 0C11.5159 0 11.0275 0.100279 10.7121 0.289516L3.7653 3.76371L0.291103 11C0.166563 11.2636 0.00158691 11.7214 0.00158691 12.0125C0.00158691 12.6449 0.279781 13.2903 0.724569 13.7496L4.19229 17.1931C4.27478 17.295 4.37183 17.3985 4.48666 17.5133L4.63061 17.6573L5.06408 18.0907L8.82779 21.8544L8.97174 21.9984H17.9451H18.0891V18.0907H21.9967V18.081V9.11734L21.856 8.97339Z" fill="url(#paint0_radial_4301_60)"/>
</g>
<defs>
<radialGradient id="paint0_radial_4301_60" cx="0" cy="0" r="1" gradientUnits="userSpaceOnUse" gradientTransform="translate(10.9992 10.9979) scale(10.9984)">
<stop stop-color="white" stop-opacity="0.1"/>
<stop offset="1" stop-color="white" stop-opacity="0"/>
</radialGradient>
<clipPath id="clip0_4301_60">
<rect width="22" height="22" fill="white"/>
</clipPath>
</defs>
</svg>
