<svg width="22" height="22" viewBox="0 0 22 22" fill="none" xmlns="http://www.w3.org/2000/svg">
<g clip-path="url(#clip0_4301_38)">
<path d="M7.33622 21.983C9.36127 21.983 11.0029 20.3414 11.0029 18.3163V14.6497H7.33622C5.31118 14.6497 3.66956 16.2913 3.66956 18.3163C3.66956 20.3414 5.31118 21.983 7.33622 21.983Z" fill="#0ACF83"/>
<path d="M3.66956 10.9828C3.66956 8.95778 5.31118 7.31616 7.33622 7.31616H11.0029V14.6495H7.33622C5.31118 14.6495 3.66956 13.0079 3.66956 10.9828Z" fill="#A259FF"/>
<path d="M3.66956 3.64958C3.66956 1.62453 5.31118 -0.0170898 7.33622 -0.0170898H11.0029V7.31624H7.33622C5.31118 7.31624 3.66956 5.67462 3.66956 3.64958Z" fill="#F24E1E"/>
<path d="M11.0029 -0.0170898H14.6696C16.6946 -0.0170898 18.3363 1.62453 18.3363 3.64958C18.3363 5.67462 16.6946 7.31624 14.6696 7.31624H11.0029V-0.0170898Z" fill="#FF7262"/>
<path d="M18.3363 10.9828C18.3363 13.0079 16.6946 14.6495 14.6696 14.6495C12.6446 14.6495 11.0029 13.0079 11.0029 10.9828C11.0029 8.95778 12.6446 7.31616 14.6696 7.31616C16.6946 7.31616 18.3363 8.95778 18.3363 10.9828Z" fill="#1ABCFE"/>
</g>
<defs>
<clipPath id="clip0_4301_38">
<rect width="22" height="22" fill="white"/>
</clipPath>
</defs>
</svg>
