<svg width="22" height="22" viewBox="0 0 22 22" fill="none" xmlns="http://www.w3.org/2000/svg">
<path fill-rule="evenodd" clip-rule="evenodd" d="M21.5851 10.0199L11.9795 0.414953C11.4267 -0.138318 10.5295 -0.138318 9.976 0.414953L7.98142 2.40958L10.5116 4.93985C11.0997 4.74118 11.7739 4.87443 12.2426 5.34322C12.7136 5.8149 12.8459 6.4949 12.6424 7.08486L15.0809 9.5234C15.6708 9.32015 16.3515 9.45171 16.8227 9.92363C17.4812 10.5819 17.4812 11.6489 16.8227 12.3076C16.164 12.9664 15.097 12.9664 14.4381 12.3076C13.9427 11.8118 13.8203 11.0842 14.0711 10.474L11.797 8.19985L11.7968 14.1844C11.9573 14.2641 12.1089 14.3701 12.2426 14.5033C12.9011 15.1616 12.9011 16.2286 12.2426 16.8878C11.5839 17.5463 10.5165 17.5463 9.85869 16.8878C9.20018 16.2286 9.20018 15.1616 9.85869 14.5033C10.0214 14.3409 10.2097 14.218 10.4105 14.1354V8.09509C10.2097 8.01301 10.0216 7.89087 9.85869 7.7272C9.35974 7.22897 9.23977 6.49683 9.4954 5.88418L7.00138 3.38963L0.415126 9.97553C-0.138375 10.5293 -0.138375 11.4265 0.415126 11.9798L10.0207 21.585C10.5737 22.1383 11.4707 22.1383 12.0244 21.585L21.5851 12.0245C22.1383 11.471 22.1383 10.5732 21.5851 10.0199Z" fill="#DE4C36"/>
</svg>
