<svg width="32" height="32" viewBox="0 0 32 32" fill="none" xmlns="http://www.w3.org/2000/svg">
<path fill-rule="evenodd" clip-rule="evenodd" d="M16.0346 2.66663C8.6893 2.66663 2.73596 8.61996 2.73596 15.9653C2.73596 21.84 6.5453 26.8253 11.8306 28.5853C12.496 28.7053 12.736 28.296 12.736 27.944C12.736 27.628 12.7253 26.7906 12.7213 25.6826C9.0213 26.4853 8.23996 23.8986 8.23996 23.8986C7.63729 22.3626 6.76396 21.9533 6.76396 21.9533C5.5573 21.128 6.85596 21.1466 6.85596 21.1466C8.19196 21.24 8.89196 22.5173 8.89196 22.5173C10.0786 24.5493 12.0066 23.9626 12.7613 23.6226C12.8826 22.7626 13.2293 22.176 13.608 21.844C10.656 21.5093 7.55196 20.368 7.55196 15.2706C7.55196 13.8213 8.07063 12.632 8.91729 11.704C8.78263 11.3666 8.32263 10.0133 9.04929 8.18396C9.04929 8.18396 10.1653 7.82529 12.7053 9.54529C13.7901 9.25019 14.9091 9.09955 16.0333 9.09729C17.1575 9.09912 18.2766 9.24976 19.3613 9.54529C21.9026 7.82396 23.0173 8.18396 23.0173 8.18396C23.744 10.0133 23.288 11.3666 23.1493 11.704C24.0026 12.632 24.5146 13.82 24.5146 15.2706C24.5146 20.3813 21.408 21.504 18.4453 21.8333C18.9186 22.244 19.3453 23.0546 19.3453 24.2946C19.3453 26.0733 19.3293 27.508 19.3293 27.944C19.3293 28.3 19.5666 28.7133 20.2453 28.5826C25.528 26.82 29.3333 21.8386 29.3333 15.9653C29.3333 8.61996 23.38 2.66663 16.0346 2.66663Z" fill="#D3E97A"/>
</svg>
